<?xml version="1.0" standalone="no"?>
<!DOCTYPE svg PUBLIC "-//W3C//DTD SVG 20010904//EN"
 "http://www.w3.org/TR/2001/REC-SVG-20010904/DTD/svg10.dtd">
<svg version="1.0" xmlns="http://www.w3.org/2000/svg"
 width="643.000000pt" height="589.000000pt" viewBox="0 0 643.000000 589.000000"
 preserveAspectRatio="xMidYMid meet">

<g transform="translate(0.000000,589.000000) scale(0.100000,-0.100000)"
fill="#fff" stroke="none">
<path d="M240 4957 c0 -650 2 -792 15 -874 15 -95 29 -156 45 -198 4 -11 16
-47 26 -80 45 -149 183 -362 313 -483 47 -45 249 -217 305 -261 17 -14 47 -39
66 -55 20 -17 60 -51 90 -76 29 -25 74 -62 99 -84 25 -21 55 -45 66 -55 29
-23 149 -125 155 -131 5 -5 99 -82 130 -107 31 -24 227 -188 266 -222 23 -20
72 -61 109 -91 37 -30 72 -59 79 -65 19 -17 139 -119 161 -137 75 -62 281
-233 285 -237 5 -5 87 -73 134 -111 26 -21 106 -88 137 -115 24 -20 25 -26 18
-71 -15 -93 -50 -292 -69 -384 -5 -25 -16 -88 -25 -140 -9 -52 -20 -115 -25
-140 -8 -45 -33 -190 -49 -285 -4 -27 -11 -58 -16 -67 -4 -10 -4 -18 -1 -18 6
0 108 85 306 255 47 40 95 81 107 91 12 11 54 46 94 79 69 58 141 119 204 174
17 14 65 55 109 91 95 79 147 122 212 176 127 106 270 226 284 237 45 36 126
103 130 108 8 8 418 350 454 378 17 14 49 41 72 60 22 20 51 45 65 56 26 22
271 226 304 254 11 9 130 108 265 220 135 112 264 220 286 240 23 20 72 61
109 91 72 59 76 63 210 177 79 68 134 130 244 275 40 52 114 207 141 293 7 22
17 49 21 60 44 103 51 247 55 1063 l5 774 -48 -39 c-26 -21 -50 -40 -53 -43
-3 -3 -40 -35 -84 -70 -43 -36 -97 -81 -120 -100 -23 -19 -62 -51 -86 -72 -25
-20 -92 -75 -150 -122 -58 -48 -112 -92 -120 -99 -8 -7 -46 -38 -85 -70 -38
-32 -99 -82 -133 -110 -35 -29 -85 -70 -111 -92 -26 -22 -67 -56 -91 -75 -24
-19 -60 -48 -79 -65 -20 -16 -40 -33 -46 -37 -9 -7 -90 -74 -140 -116 -11 -10
-53 -44 -93 -77 -41 -33 -95 -78 -121 -100 -26 -22 -67 -56 -91 -75 -24 -19
-65 -53 -91 -75 -26 -22 -72 -60 -103 -85 -32 -25 -69 -55 -84 -68 -51 -44
-213 -177 -248 -204 -19 -14 -52 -41 -72 -60 -21 -18 -58 -49 -82 -68 -24 -19
-65 -53 -91 -75 -26 -22 -72 -60 -103 -85 -32 -25 -72 -58 -91 -75 -18 -16
-59 -50 -90 -75 -31 -25 -66 -53 -78 -64 -12 -10 -42 -35 -67 -55 -25 -20 -54
-44 -64 -53 -11 -10 -23 -18 -27 -18 -7 0 -25 -15 -174 -150 -34 -30 -128
-109 -210 -175 -81 -66 -169 -138 -195 -160 -80 -68 -95 -81 -108 -89 -14 -9
-37 3 -89 46 -21 18 -56 47 -77 63 -21 17 -87 69 -147 117 -60 48 -126 95
-146 105 -53 25 -175 24 -228 -1 -35 -16 -161 -99 -175 -115 -11 -12 -109 -91
-113 -91 -3 0 -7 44 -11 98 -16 261 -18 326 -8 360 5 21 18 71 27 112 20 84
16 74 74 192 24 47 62 108 84 135 65 76 183 192 209 203 13 6 41 21 63 35 45
28 73 41 128 58 20 7 37 15 37 19 0 5 8 8 17 8 23 0 83 22 83 31 0 4 -15 18
-32 30 -18 13 -49 36 -68 53 -20 17 -58 49 -84 71 -27 22 -65 54 -85 71 -20
17 -63 53 -97 80 -33 27 -80 66 -105 86 -24 21 -91 76 -149 124 -58 47 -127
104 -154 127 -27 23 -77 65 -111 92 -65 52 -118 96 -189 155 -23 19 -64 53
-91 75 -27 22 -65 54 -84 71 -20 17 -63 53 -97 80 -33 27 -80 66 -105 86 -38
33 -98 81 -299 246 -24 21 -63 53 -86 72 -23 19 -72 60 -109 90 -37 30 -85 70
-106 89 l-39 33 0 -775z"/>
<path d="M2071 3494 c-7 -9 -15 -32 -18 -52 -6 -47 19 -81 67 -88 77 -13 123
81 67 134 -28 26 -95 30 -116 6z"/>
<path d="M3856 1531 c-2 -3 -7 -27 -11 -54 -4 -26 -11 -50 -16 -53 -5 -3 -9
-16 -9 -30 0 -13 -4 -32 -9 -42 -5 -9 -17 -48 -26 -87 -9 -38 -20 -79 -25 -90
-4 -11 -16 -51 -25 -90 -9 -38 -20 -79 -25 -90 -17 -42 -32 -103 -29 -113 2
-6 96 -105 209 -219 113 -114 278 -283 368 -375 89 -93 166 -168 171 -168 5 0
42 45 82 101 41 55 80 108 87 117 7 10 43 58 79 107 37 50 72 95 77 102 6 6
31 40 56 74 25 35 101 139 170 231 69 92 154 207 190 255 74 101 72 98 105
139 l25 32 -37 5 c-37 5 -173 30 -263 47 -25 5 -83 16 -130 24 -47 8 -107 19
-135 24 -109 21 -233 44 -285 53 -30 5 -75 14 -100 19 -25 5 -85 17 -135 25
-49 9 -110 20 -135 25 -108 21 -221 36 -224 31z"/>
</g>
</svg>
